<?xml version="1.0" encoding="UTF-8"?>
<!DOCTYPE svg PUBLIC "-//W3C//DTD SVG 1.1//EN" "http://www.w3.org/Graphics/SVG/1.1/DTD/svg11.dtd">
<!-- Creator: CorelDRAW (OEM Version) -->
<svg xmlns="http://www.w3.org/2000/svg" xml:space="preserve" width="207.629mm" height="61.2115mm" version="1.1" style="shape-rendering:geometricPrecision; text-rendering:geometricPrecision; image-rendering:optimizeQuality; fill-rule:evenodd; clip-rule:evenodd"
viewBox="0 0 5585.03 1646.53"
 xmlns:xlink="http://www.w3.org/1999/xlink"
 xmlns:xodm="http://www.corel.com/coreldraw/odm/2003">
 <defs>
  <style type="text/css">
   <![CDATA[
    .fil0 {fill:none}
    .fil1 {fill:#6D40C7}
   ]]>
  </style>
 </defs>
 <g id="Layer_x0020_1">
  <metadata id="CorelCorpID_0Corel-Layer"/>
  <rect class="fil0" x="-0" y="-0" width="5585.03" height="1646.54"/>
  <path class="fil1" d="M1281.16 243.25l-378.17 0c-269.88,0 -490.68,220.8 -490.68,490.67l0 412.43c0,43.04 35.21,78.25 78.25,78.25l353.69 0c-50.05,-59.34 -38.36,-176.98 76.72,-190.5l405.43 -7.49 -155.1 -202.29 -461.44 -13.05c-26.64,4.83 -62.38,60.6 -44.5,103.16l113.74 175.52 -148.32 -178.65c-21.72,-31.75 9.96,-125 61.94,-130.96l514.54 -6.38 186.4 244.91 0 -663.12c0,-61.88 -50.62,-112.5 -112.5,-112.5zm3453.56 438.75l153.81 0 131.17 387.86 128 -387.86 149.59 0 -192.79 526.22 -34.76 94.99c-12.82,31.78 -24.94,56.01 -36.52,72.87 -11.41,16.68 -24.76,30.37 -39.68,40.74 -14.93,10.54 -33.36,18.61 -55.31,24.41 -21.77,5.79 -46.53,8.78 -74.1,8.78 -27.74,0 -55.13,-2.99 -82,-8.78l-12.65 -112.73c22.65,4.39 43.19,6.67 61.46,6.67 33.71,0 58.65,-9.83 74.8,-29.67 16.16,-19.84 28.62,-45.12 37.22,-75.68l-201.65 -530.48 -44.17 124.36c-24.41,-15.8 -47.06,-23.7 -67.96,-23.7 -20.37,0 -37.57,5.62 -51.62,16.68 -14.04,11.24 -25.1,31.26 -33.19,60.4 -8.08,29.14 -12.12,90.25 -12.12,183.13l0 168.56 -144.33 0 0 -546.77 133.79 0 0 77.61c23,-36.7 43.72,-60.76 62.16,-72.17 18.44,-11.41 39.33,-17.04 62.68,-17.04 32.43,0 63.67,8.82 93.72,26.27l-5.58 -14.68zm-818.92 168.56l-130.64 -23.18c14.75,-53.38 40.21,-92.88 76.21,-118.52 36,-25.64 89.54,-38.46 160.49,-38.46 64.44,0 112.55,7.55 144.15,22.83 31.43,15.27 53.73,34.59 66.55,58.11 12.81,23.53 19.31,66.55 19.31,129.41l-2.11 168.56c0,47.93 2.28,83.4 6.85,106.23 4.57,22.83 13.17,47.23 25.81,73.22l-143.28 0c-3.69,-9.48 -8.42,-23.53 -13.87,-42.14 -2.28,-8.61 -4.04,-14.22 -5.09,-16.86 -24.58,24.23 -50.92,42.31 -79.01,54.43 -28.1,12.11 -57.94,18.26 -89.73,18.26 -56.01,0 -100.26,-15.27 -132.57,-45.83 -32.3,-30.37 -48.46,-69 -48.46,-115.71 0,-30.73 7.37,-58.3 22.12,-82.53 14.75,-24.05 35.29,-42.66 61.98,-55.48 26.51,-12.82 64.79,-24.05 114.83,-33.71 67.43,-12.64 114.31,-24.58 140.29,-35.46l0 -14.57c0,-28.1 -6.84,-48.11 -20.54,-60.23 -13.87,-11.94 -39.86,-17.91 -77.96,-17.91 -25.81,0 -45.83,5.09 -60.23,15.45 -14.57,10.18 -26.16,28.27 -35.11,54.08zm193.84 116.94c-18.44,6.15 -47.76,13.52 -87.96,22.12 -40.03,8.6 -66.38,17.04 -78.67,25.11 -18.79,13.52 -28.27,30.37 -28.27,50.92 0,20.37 7.56,37.75 22.65,52.5 15.1,14.75 34.24,22.12 57.59,22.12 25.98,0 50.92,-8.6 74.63,-25.64 17.38,-13.17 28.97,-28.97 34.41,-47.93 3.69,-12.29 5.62,-35.82 5.62,-70.41l0 -28.8zm-447.56 261.27l-144.33 0 0 -278.65c0,-59 -3.16,-97.1 -9.3,-114.31 -6.32,-17.38 -16.33,-30.73 -30.37,-40.39 -14.05,-9.65 -30.91,-14.4 -50.57,-14.4 -25.29,0 -47.93,6.85 -67.95,20.55 -20.19,13.7 -33.89,31.96 -41.26,54.43 -7.55,22.65 -11.24,64.44 -11.24,125.54l0 247.22 -144.33 0 0 -546.77 133.79 0 0 80.24c47.93,-61.27 108.16,-91.83 181.03,-91.83 31.96,0 61.28,5.8 87.79,17.21 26.69,11.59 46.7,26.16 60.23,43.9 13.69,17.91 23.18,38.1 28.44,60.75 5.45,22.65 8.08,54.95 8.08,97.1l0 339.4zm-1174.49 -280.06c0,-48.11 11.77,-94.64 35.47,-139.59 23.71,-45.12 57.24,-79.36 100.61,-103.07 43.37,-23.7 91.66,-35.65 145.21,-35.65 82.7,0 150.3,26.87 203.15,80.6 52.85,53.91 79.19,121.68 79.19,203.86 0,82.87 -26.69,151.53 -79.89,205.96 -53.38,54.43 -120.45,81.64 -201.4,81.64 -50.04,0 -97.8,-11.41 -143.28,-34.07 -45.3,-22.65 -79.89,-55.84 -103.59,-99.73 -23.7,-43.72 -35.47,-97.1 -35.47,-159.96zm148.55 7.73c0,54.26 12.81,95.87 38.45,124.67 25.81,28.97 57.42,43.37 95.17,43.37 37.58,0 69.18,-14.4 94.64,-43.37 25.46,-28.8 38.28,-70.76 38.28,-125.72 0,-53.56 -12.82,-94.82 -38.28,-123.61 -25.46,-28.97 -57.07,-43.37 -94.64,-43.37 -37.75,0 -69.36,14.4 -95.17,43.37 -25.63,28.8 -38.45,70.41 -38.45,124.66zm-407.53 -348.18l0 -133.8 144.33 0 0 133.8 -144.33 0zm0 620.51l0 -546.77 144.33 0 0 546.77 -144.33 0zm-101.14 -546.77l0 114.83 -99.03 0 0 221.41c0,44.95 0.88,71.11 2.81,78.48 1.93,7.38 6.15,13.52 12.99,18.44 6.67,4.74 14.75,7.2 24.4,7.2 13.52,0 32.84,-4.56 58.3,-13.87l12.12 112.38c-33.54,14.4 -71.47,21.6 -113.96,21.6 -25.98,0 -49.34,-4.39 -70.23,-13.17 -20.9,-8.78 -36.17,-20.19 -45.83,-34.06 -9.83,-14.05 -16.51,-32.84 -20.37,-56.72 -2.99,-16.85 -4.57,-50.91 -4.57,-102.36l0 -239.32 -66.37 0 0 -114.83 66.37 0 0 -108.51 144.33 -85.33 0 193.85 99.03 0zm-521.66 546.77l-144.33 0 0 -546.77 133.79 0 0 77.61c23,-36.7 43.72,-60.76 62.16,-72.17 18.44,-11.41 39.33,-17.04 62.68,-17.04 33.01,0 64.79,9.13 95.34,27.22l-44.77 126.07c-24.41,-15.8 -47.06,-23.7 -67.96,-23.7 -20.37,0 -37.57,5.62 -51.62,16.68 -14.04,11.24 -25.1,31.26 -33.19,60.4 -8.08,29.14 -12.11,90.25 -12.11,183.13l0 168.56zm-1222.9 -927.23l6.92 22.53c9.96,32.42 33.3,55.76 65.72,65.72l22.53 6.92 -22.53 6.92c-32.42,9.96 -55.76,33.3 -65.72,65.72l-6.92 22.53 -6.92 -22.53c-9.96,-32.42 -33.3,-55.76 -65.72,-65.72l-22.53 -6.92 22.53 -6.92c32.42,-9.96 55.76,-33.3 65.72,-65.72l6.92 -22.53zm67.15 -105.01l4.35 14.16c6.26,20.38 20.93,35.05 41.31,41.31l14.16 4.35 -14.16 4.35c-20.38,6.26 -35.05,20.93 -41.31,41.31l-4.35 14.16 -4.35 -14.16c-6.26,-20.38 -20.93,-35.05 -41.31,-41.31l-14.16 -4.35 14.16 -4.35c20.38,-6.26 35.05,-20.93 41.31,-41.31l4.35 -14.16zm156.71 364.91l6.92 22.53c9.96,32.42 33.3,55.76 65.72,65.72l22.53 6.92 -22.53 6.92c-32.42,9.96 -55.76,33.3 -65.72,65.72l-6.92 22.53 -6.92 -22.53c-9.96,-32.42 -33.3,-55.76 -65.72,-65.72l-22.53 -6.92 22.53 -6.92c32.42,-9.96 55.76,-33.3 65.72,-65.72l6.92 -22.53zm67.15 -105.01l4.35 14.16c6.26,20.38 20.93,35.05 41.31,41.31l14.16 4.35 -14.16 4.35c-20.38,6.26 -35.05,20.93 -41.31,41.31l-4.35 14.16 -4.35 -14.16c-6.26,-20.38 -20.93,-35.05 -41.31,-41.31l-14.16 -4.35 14.16 -4.35c20.38,-6.26 35.05,-20.93 41.31,-41.31l4.35 -14.16zm719.75 735.92l0 -105.18 -477.95 0c-57.71,10.58 -54.25,106.91 5.14,114.91l439.83 6.18 -9.53 -49.47c-118.43,0.99 -232.09,-6.41 -344.53,-15.91l371.2 -15.34c11.28,-1.08 7.46,25.2 12.34,53.9 0.5,2.97 1.82,6.71 3.51,10.9z"/>
 </g>
</svg>
